<?xml version="1.0" standalone="no"?>
<!DOCTYPE svg PUBLIC "-//W3C//DTD SVG 20010904//EN"
 "http://www.w3.org/TR/2001/REC-SVG-20010904/DTD/svg10.dtd">
<svg version="1.0" xmlns="http://www.w3.org/2000/svg"
 width="500.000000pt" height="500.000000pt" viewBox="0 0 500.000000 500.000000"
 preserveAspectRatio="xMidYMid meet">

<g transform="translate(0.000000,500.000000) scale(0.100000,-0.100000)"
fill="#fff" stroke="none">
<path d="M1214 3840 c-34 -13 -38 -29 -7 -25 16 1 31 -2 35 -9 4 -6 8 1 8 17
0 29 -3 30 -36 17z"/>
<path d="M3980 3782 c1 -26 1 -26 15 -8 8 11 15 14 15 8 0 -7 5 -12 11 -12 13
0 34 -20 42 -40 5 -13 5 -13 6 0 1 21 -41 66 -67 72 -19 5 -22 2 -22 -20z"/>
<path d="M1160 3785 c0 -8 2 -15 4 -15 2 0 6 7 10 15 3 8 1 15 -4 15 -6 0 -10
-7 -10 -15z"/>
<path d="M1269 3758 c-6 -13 -4 -46 2 -42 5 3 9 -3 10 -13 0 -11 3 -13 6 -5 3
7 0 19 -7 27 -6 8 -9 19 -5 25 3 5 4 10 1 10 -3 0 -7 -1 -7 -2z"/>
<path d="M3961 3707 c-1 -12 -6 -16 -13 -11 -7 4 -10 4 -6 -1 19 -21 -94 -155
-143 -170 -24 -8 -24 -17 1 -33 12 -7 20 -8 20 -2 0 5 9 10 20 10 11 0 19 3
19 8 -4 22 4 33 26 42 18 7 25 17 25 35 0 14 5 25 10 25 6 0 10 5 10 12 0 6 9
22 21 34 13 14 19 31 16 46 -3 15 -5 17 -6 5z"/>
<path d="M1122 3655 c0 -16 2 -22 5 -12 2 9 2 23 0 30 -3 6 -5 -1 -5 -18z"/>
<path d="M1206 3673 c-3 -3 -6 -17 -6 -31 0 -17 -4 -23 -15 -18 -10 4 -15 -1
-15 -14 0 -11 -4 -20 -10 -20 -5 0 -10 5 -10 12 0 6 -3 8 -6 5 -4 -4 0 -17 9
-30 8 -13 13 -36 11 -53 -4 -24 -3 -26 5 -9 8 17 10 15 10 -13 1 -18 5 -31 9
-28 5 3 7 18 4 34 -2 17 5 46 17 70 12 23 21 52 21 66 0 25 -12 40 -24 29z"/>
<path d="M4102 3632 c-1 -24 -6 -41 -11 -38 -5 4 -7 -2 -4 -13 7 -29 -16 -35
-38 -10 -17 20 -24 40 -20 62 1 10 -7 9 -29 -3 -20 -11 -17 -36 14 -96 13 -26
15 -58 7 -105 0 -4 -8 -10 -16 -13 -10 -4 -19 3 -27 19 -6 13 -17 26 -26 30
-12 4 -13 -1 -9 -25 4 -16 3 -30 -2 -30 -5 0 -8 -8 -7 -17 0 -10 -6 -18 -14
-18 -19 0 -32 -29 -23 -52 4 -10 2 -14 -5 -9 -11 7 -27 -28 -18 -42 3 -5 -1
-9 -9 -9 -8 0 -15 4 -15 9 0 4 -9 17 -21 29 -16 16 -23 18 -35 8 -12 -9 -17
-10 -27 0 -7 7 -13 16 -13 22 -1 5 -2 15 -3 22 -1 8 -4 7 -11 -3 -5 -8 -6 -26
-3 -39 4 -16 2 -22 -5 -17 -8 4 -10 2 -6 -7 6 -18 -5 -26 -39 -29 -16 -1 -30
-11 -36 -26 -6 -13 -15 -21 -20 -17 -5 3 -12 1 -16 -5 -11 -18 -25 -11 -25 13
-1 22 -1 22 -15 -3 -13 -24 -12 -25 18 -31 18 -4 24 -7 15 -8 -22 -1 -24 -20
-3 -27 19 -8 47 14 38 29 -3 5 -1 7 5 3 6 -3 13 -2 16 3 3 5 15 7 26 4 12 -3
20 0 20 7 0 7 8 10 20 7 13 -3 20 0 20 8 0 14 53 30 69 21 5 -4 12 -2 16 4 3
5 13 10 22 10 9 0 23 7 32 15 123 112 178 186 164 221 -4 10 -2 15 4 11 18
-11 55 88 50 135 l-4 43 -1 -43z"/>
<path d="M1320 3637 c0 -17 29 -55 37 -49 2 1 2 -1 1 -4 -2 -3 8 -12 22 -19
14 -8 19 -14 12 -15 -10 0 -10 -3 0 -14 14 -14 42 -10 32 5 -3 5 1 9 8 9 7 0
-8 14 -34 30 -25 16 -53 39 -62 52 -14 19 -16 20 -16 5z"/>
<path d="M1525 3520 c-11 -3 -21 -11 -23 -18 -2 -10 2 -10 20 -1 12 7 23 8 25
3 9 -24 22 -36 38 -32 14 2 12 7 -12 28 -18 17 -35 24 -48 20z"/>
<path d="M1580 3516 c0 -2 9 -6 20 -9 11 -3 18 -1 14 4 -5 9 -34 13 -34 5z"/>
<path d="M1648 3513 c7 -3 16 -2 19 1 4 3 -2 6 -13 5 -11 0 -14 -3 -6 -6z"/>
<path d="M1266 3493 c-5 -13 -11 -21 -15 -19 -4 3 -8 -5 -8 -17 -1 -12 -7 -23
-13 -25 -16 -6 -12 -22 6 -22 8 0 12 -4 9 -10 -3 -5 0 -7 8 -4 10 3 17 -4 21
-21 4 -14 11 -23 16 -20 4 3 10 -3 13 -12 2 -10 4 -2 3 18 0 29 -3 36 -15 31
-13 -4 -14 -2 -3 9 14 15 16 33 3 24 -6 -3 -12 16 -14 42 -3 38 -5 43 -11 26z"/>
<path d="M3535 3470 c-4 -6 5 -10 19 -10 14 0 26 5 26 10 0 6 -9 10 -19 10
-11 0 -23 -4 -26 -10z"/>
<path d="M3582 3458 c-15 -17 -18 -27 -11 -40 12 -22 31 -24 23 -3 -4 9 0 15
10 15 9 0 16 5 16 11 0 6 5 7 13 2 18 -11 37 -12 37 -2 0 5 14 9 30 9 20 0 30
5 30 15 0 12 -14 15 -63 15 -53 0 -67 -4 -85 -22z"/>
<path d="M1201 3444 c0 -11 3 -14 6 -6 3 7 2 16 -1 19 -3 4 -6 -2 -5 -13z"/>
<path d="M1630 3450 c0 -5 5 -10 11 -10 5 0 7 5 4 10 -3 6 -8 10 -11 10 -2 0
-4 -4 -4 -10z"/>
<path d="M3476 3441 c-3 -4 6 -6 19 -3 14 2 25 6 25 8 0 8 -39 4 -44 -5z"/>
<path d="M1315 3420 c-3 -5 -1 -10 4 -10 6 0 11 5 11 10 0 6 -2 10 -4 10 -3 0
-8 -4 -11 -10z"/>
<path d="M1473 3360 c-3 -11 -12 -20 -20 -20 -8 0 -11 -5 -7 -12 7 -11 4 -10
-43 9 -7 3 -13 1 -13 -5 0 -16 -33 -24 -42 -10 -5 9 -8 8 -8 -6 0 -23 27 -45
55 -46 16 0 17 2 5 9 -8 6 -18 7 -22 5 -4 -3 -8 0 -8 5 0 22 72 15 113 -9 26
-16 27 -19 9 -17 -12 1 -22 4 -22 8 0 4 -8 10 -17 13 -14 6 -13 2 4 -16 18
-19 30 -23 64 -20 24 3 36 8 29 12 -6 4 -12 11 -11 16 0 5 -8 8 -19 6 -10 -2
-21 2 -25 8 -3 5 0 10 7 10 8 0 7 4 -4 11 -13 7 -16 17 -11 39 6 33 -6 42 -14
10z"/>
<path d="M1630 3251 c0 -17 -4 -22 -16 -17 -8 3 -12 2 -9 -3 7 -13 45 -9 45 4
0 5 -5 17 -10 25 -8 12 -10 10 -10 -9z"/>
<path d="M3462 3160 c0 -14 2 -19 5 -12 2 6 2 18 0 25 -3 6 -5 1 -5 -13z"/>
<path d="M1498 3153 c7 -3 16 -2 19 1 4 3 -2 6 -13 5 -11 0 -14 -3 -6 -6z"/>
<path d="M3567 3147 c-3 -8 3 -14 16 -15 12 0 17 2 12 6 -6 4 -13 11 -16 15
-4 4 -9 2 -12 -6z"/>
<path d="M3500 3140 c-9 -6 -10 -10 -3 -10 6 0 15 5 18 10 8 12 4 12 -15 0z"/>
<path d="M1588 3093 c7 -3 16 -2 19 1 4 3 -2 6 -13 5 -11 0 -14 -3 -6 -6z"/>
<path d="M3421 3044 c0 -11 3 -14 6 -6 3 7 2 16 -1 19 -3 4 -6 -2 -5 -13z"/>
<path d="M3485 2990 c-3 -6 1 -7 9 -4 18 7 21 14 7 14 -6 0 -13 -4 -16 -10z"/>
<path d="M3321 2964 c0 -11 3 -14 6 -6 3 7 2 16 -1 19 -3 4 -6 -2 -5 -13z"/>
<path d="M1781 2924 c0 -11 3 -14 6 -6 3 7 2 16 -1 19 -3 4 -6 -2 -5 -13z"/>
<path d="M3426 2928 c3 -5 10 -6 15 -3 13 9 11 12 -6 12 -8 0 -12 -4 -9 -9z"/>
<path d="M1795 2895 c-3 -8 -7 -21 -9 -29 -3 -8 1 -16 7 -19 8 -3 12 7 12 29
0 37 -3 42 -10 19z"/>
<path d="M3423 2870 c0 -25 2 -35 4 -22 2 12 2 32 0 45 -2 12 -4 2 -4 -23z"/>
<path d="M2028 2853 c6 -2 18 -2 25 0 6 3 1 5 -13 5 -14 0 -19 -2 -12 -5z"/>
<path d="M3158 2833 c7 -3 16 -2 19 1 4 3 -2 6 -13 5 -11 0 -14 -3 -6 -6z"/>
<path d="M3422 2800 c0 -14 2 -19 5 -12 2 6 2 18 0 25 -3 6 -5 1 -5 -13z"/>
<path d="M3422 2695 c0 -16 2 -22 5 -12 2 9 2 23 0 30 -3 6 -5 -1 -5 -18z"/>
<path d="M3682 2670 c0 -14 2 -19 5 -12 2 6 2 18 0 25 -3 6 -5 1 -5 -13z"/>
<path d="M1858 2673 c7 -3 16 -2 19 1 4 3 -2 6 -13 5 -11 0 -14 -3 -6 -6z"/>
<path d="M3581 2624 c0 -11 3 -14 6 -6 3 7 2 16 -1 19 -3 4 -6 -2 -5 -13z"/>
<path d="M2542 2600 c0 -14 2 -19 5 -12 2 6 2 18 0 25 -3 6 -5 1 -5 -13z"/>
<path d="M3581 2484 c0 -11 3 -14 6 -6 3 7 2 16 -1 19 -3 4 -6 -2 -5 -13z"/>
<path d="M2068 2373 c7 -3 16 -2 19 1 4 3 -2 6 -13 5 -11 0 -14 -3 -6 -6z"/>
<path d="M2931 2234 c0 -11 3 -14 6 -6 3 7 2 16 -1 19 -3 4 -6 -2 -5 -13z"/>
<path d="M3220 2206 c0 -2 7 -7 16 -10 8 -3 12 -2 9 4 -6 10 -25 14 -25 6z"/>
<path d="M2933 1840 c0 -30 2 -43 4 -27 2 15 2 39 0 55 -2 15 -4 2 -4 -28z"/>
<path d="M2895 1839 c-4 -6 -5 -12 -2 -15 2 -3 7 2 10 11 7 17 1 20 -8 4z"/>
<path d="M2476 1807 c3 -10 9 -15 12 -12 3 3 0 11 -7 18 -10 9 -11 8 -5 -6z"/>
<path d="M2680 1417 c0 -20 4 -37 8 -37 9 0 7 58 -2 67 -3 4 -6 -10 -6 -30z"/>
<path d="M2631 1367 c0 -10 -6 -15 -11 -12 -6 3 -13 -1 -16 -10 -5 -12 -10
-13 -20 -4 -7 6 -18 8 -24 4 -15 -9 -51 5 -44 17 4 7 2 8 -4 4 -6 -4 -9 -13
-6 -21 4 -10 0 -12 -15 -8 -15 4 -21 1 -21 -11 0 -9 -4 -16 -10 -16 -5 0 -10
-6 -10 -14 0 -8 -5 -16 -11 -18 -15 -5 -14 -39 3 -175 1 -7 6 -11 12 -10 6 1
10 -4 9 -10 -2 -7 3 -13 10 -13 8 0 7 -4 -3 -10 -13 -8 -12 -10 4 -10 11 0 17
-3 14 -6 -4 -3 0 -17 7 -31 8 -15 11 -31 8 -36 -3 -6 -1 -7 5 -3 6 4 9 13 6
21 -5 12 1 14 27 9 19 -3 47 -10 62 -15 20 -6 36 -5 50 3 12 7 25 11 30 10 4
-1 7 3 7 9 0 5 3 8 8 6 4 -3 7 5 7 18 0 13 -4 21 -10 18 -5 -2 -2 2 7 10 10 8
14 17 10 21 -4 4 -2 7 3 6 22 -5 36 1 30 10 -4 6 -2 17 4 24 6 7 10 28 8 47
-2 19 0 41 5 51 9 18 -9 78 -23 78 -5 0 -9 5 -9 10 0 10 -36 50 -44 50 -2 0
-2 -10 0 -22 4 -21 3 -21 -7 2 -7 15 -13 20 -16 13 -7 -20 -21 -15 -26 10 -3
16 -5 17 -6 4z"/>
<path d="M2627 936 c-4 -10 -1 -13 8 -9 8 3 12 9 9 14 -7 12 -11 11 -17 -5z"/>
</g>
</svg>
